M48
METRIC,LZ,000.000
;FILE_FORMAT=3:3
;TYPE=PLATED
;Layer: PTH_Through
;EasyEDA v6.5.34, 2023-08-10 19:04:03
;aaf764472e2f49baad615704bd9e3d85,f0aaafa8627743d499664706fb11d6fc,10
;Gerber Generator version 0.2
;Holesize 1 = 0.306 mm
T01C0.306
;Holesize 2 = 0.701 mm
T02C0.701
;Holesize 3 = 0.900 mm
T03C0.900
;Holesize 4 = 0.901 mm
T04C0.901
;Holesize 5 = 0.915 mm
T05C0.915
;Holesize 6 = 1.000 mm
T06C1.000
;Holesize 7 = 1.101 mm
T07C1.101
%
G05
G90
T01
X074288Y038461
X066541Y043020
X063119Y044577
T02
X026797Y037100
X026797Y039100
X088138Y036830
X088138Y038100
X088138Y039370
T03
X073025Y069850
X062865Y069850
X093635Y047335
X086451Y054519
X073025Y006350
X062865Y006350
X073025Y064770
X062865Y064770
X093635Y029119
X086451Y021935
X073025Y011303
X062865Y011303
X084328Y043180
X084328Y033020
T04
X064897Y056007
X080137Y053467
X080137Y048386
X080137Y043306
X080137Y038226
X080137Y033146
X080137Y028066
X080137Y022986
X064897Y020447
X064897Y025528
X064897Y030608
X064897Y035688
X064897Y040768
X064897Y045848
X064897Y050927
X064897Y053467
X064897Y048387
X064897Y043307
X064897Y038227
X064897Y033147
X064897Y028067
X064897Y022987
X080137Y020447
X080137Y025527
X080137Y030607
X080137Y035687
X080137Y040767
X080137Y045847
X080137Y050927
X080137Y056007
T05
X083303Y064525
X085099Y062729
X094996Y035687
X094996Y033147
X083303Y011675
X085099Y013471
X051562Y003556
X054102Y003556
X056642Y003556
X041910Y072136
X039878Y072136
X037846Y072136
X035814Y072136
X033782Y072136
X031750Y072136
X041910Y004064
X039878Y004064
X037846Y004064
X035814Y004064
X033782Y004064
X031750Y004064
X076200Y029210
X076200Y031750
X076200Y034290
X076200Y036830
X076200Y039370
X076200Y041910
X076200Y044450
X076200Y046990
X068580Y046990
X068580Y044450
X068580Y041910
X068580Y039370
X068580Y036830
X068580Y034290
X068580Y031750
X068580Y029210
X005461Y042672
X005461Y033401
X020701Y042672
X020701Y033401
T06
X077842Y068208
X079638Y066412
X094996Y043307
X094996Y040767
X078096Y007992
X079892Y009788
T07
X052070Y009652
X039270Y009652
M30
